<svg id="Layer_1" data-name="Layer 1" xmlns="http://www.w3.org/2000/svg" xmlns:xlink="http://www.w3.org/1999/xlink" viewBox="0 0 119.7717 89"><defs><style>.cls-1,.cls-2{fill:#fff;}.cls-1{opacity:0.5;}.cls-3{fill:url(#linear-gradient);}.cls-4{fill:url(#linear-gradient-2);}.cls-5{fill:url(#linear-gradient-3);}</style><linearGradient id="linear-gradient" x1="17.7689" y1="40.9352" x2="17.7689" y2="45.8216" gradientUnits="userSpaceOnUse"><stop offset="0" stop-color="#fff" stop-opacity="0.3"/><stop offset="1" stop-color="#fff" stop-opacity="0.8"/></linearGradient><linearGradient id="linear-gradient-2" x1="7.7039" y1="41.639" x2="7.7039" y2="45.1179" xlink:href="#linear-gradient"/><linearGradient id="linear-gradient-3" x1="24.3178" y1="23.4302" x2="117.3021" y2="23.4302" gradientUnits="userSpaceOnUse"><stop offset="0" stop-color="#fff" stop-opacity="0.3"/><stop offset="0.8543" stop-color="#fff"/></linearGradient></defs><title>CD2H_logo</title><path class="cls-1" d="M25.13,23.883A1.7394,1.7394,0,1,1,23.39,22.1437,1.7393,1.7393,0,0,1,25.13,23.883Z"/><path class="cls-1" d="M41.9675,5.3037a2.4434,2.4434,0,1,1-2.4433-2.4431A2.4434,2.4434,0,0,1,41.9675,5.3037Z"/><path class="cls-1" d="M33.4553,5.3037A1.7395,1.7395,0,1,1,31.716,3.5643,1.74,1.74,0,0,1,33.4553,5.3037Z"/><path class="cls-2" d="M35.9721,72.783A2.4434,2.4434,0,1,1,33.5287,70.34,2.4432,2.4432,0,0,1,35.9721,72.783Z"/><path class="cls-2" d="M43.7888,82.6961a2.4433,2.4433,0,1,1-2.4431-2.4434A2.4432,2.4432,0,0,1,43.7888,82.6961Z"/><path class="cls-2" d="M27.46,72.783a1.7395,1.7395,0,1,1-1.7393-1.7393A1.7394,1.7394,0,0,1,27.46,72.783Z"/><circle class="cls-2" cx="19.5235" cy="72.783" r="1.1168"/><path class="cls-3" d="M20.2123,43.3785a2.4434,2.4434,0,1,1-2.4434-2.4433A2.4432,2.4432,0,0,1,20.2123,43.3785Z"/><path class="cls-4" d="M9.4432,43.3785A1.7394,1.7394,0,1,1,7.7039,41.639,1.7394,1.7394,0,0,1,9.4432,43.3785Z"/><circle class="cls-2" cx="24.2548" cy="53.4175" r="1.7393"/><path class="cls-2" d="M37.0077,82.6961a1.74,1.74,0,1,1-1.74-1.7394A1.7393,1.7393,0,0,1,37.0077,82.6961Z"/><path class="cls-2" d="M26.7545,45.8216h7.7362a2.4306,2.4306,0,0,1,0,4.8611H30.3849a2.4434,2.4434,0,0,0,0,4.8867H49.0287a2.4305,2.4305,0,1,1,0,4.861H36.0127a2.4433,2.4433,0,1,0,0,4.8865H52.2753a2.4305,2.4305,0,1,1,0,4.861H41.64a2.4434,2.4434,0,0,0,0,4.8867H55.8483a2.4307,2.4307,0,0,1,0,4.8613h-8.297a2.6067,2.6067,0,0,0,0,5.2133H93.55L117.3021,44H24.4066A2.4293,2.4293,0,0,0,26.7545,45.8216ZM60.6091,70.34h-.0024a2.4307,2.4307,0,1,1,0-4.8613h.0024a2.4307,2.4307,0,1,1,0,4.8613ZM66.9385,60.43h-3.9a2.4305,2.4305,0,1,1,0-4.861h3.9a2.4305,2.4305,0,1,1,0,4.861ZM59.6529,45.8216H72.518a2.4306,2.4306,0,1,1,0,4.8611H59.6529a2.4306,2.4306,0,1,1,0-4.8611ZM56.496,55.5459a2.4305,2.4305,0,1,1,0,4.861h-.927a2.4305,2.4305,0,0,1,0-4.861ZM42.18,45.8216H52.2753a2.4306,2.4306,0,0,1,0,4.8611H42.18a2.4306,2.4306,0,1,1,0-4.8611Z"/><path class="cls-5" d="M47.5328,2.8606a2.5743,2.5743,0,1,0,0,5.1486H56.11a2.4306,2.4306,0,0,1,0,4.8611H41.3376a1.8539,1.8539,0,0,0-1.6056.927v0a1.854,1.854,0,0,0,1.6056,2.7811h9.4079a2.4306,2.4306,0,0,1,0,4.8612H36.6891a2.3726,2.3726,0,0,0-2.0545,1.186l-.0819.1422a2.3723,2.3723,0,0,0,2.0543,3.5583,2.4305,2.4305,0,1,1,0,4.861H28.4549a2.4433,2.4433,0,0,0,0,4.8865h.4482a2.4307,2.4307,0,0,1,0,4.8613H26.7545a2.4433,2.4433,0,0,0-2.3139,1.6588A2.4,2.4,0,0,0,24.4066,44h92.8955L93.55,2.8606Zm9.1143,13.7181h3.7848a2.4306,2.4306,0,1,1,0,4.8612H56.6471a2.4306,2.4306,0,0,1,0-4.8612ZM44.0294,26.3264H65.8008a2.4305,2.4305,0,1,1,0,4.861H44.0294a2.4305,2.4305,0,1,1,0-4.861ZM42.8919,40.9352H35.607a2.4307,2.4307,0,0,1,0-4.8613h7.2849a2.4307,2.4307,0,1,1,0,4.8613Zm28.3091,0H50.1334a2.4307,2.4307,0,1,1,0-4.8613H71.201a2.4307,2.4307,0,1,1,0,4.8613Z"/><path class="cls-1" d="M32.42,23.883A2.4433,2.4433,0,1,1,29.9764,21.44,2.4433,2.4433,0,0,1,32.42,23.883Z"/></svg>