<svg id="Layer_1" data-name="Layer 1" xmlns="http://www.w3.org/2000/svg" xmlns:xlink="http://www.w3.org/1999/xlink" viewBox="0 0 120.5958 86.082"><defs><style>.cls-1{fill:#b1b1b2;}.cls-2{fill:#3a3a3a;}.cls-3{fill:url(#linear-gradient);}.cls-4{fill:url(#linear-gradient-2);}.cls-5{fill:url(#linear-gradient-3);}</style><linearGradient id="linear-gradient" x1="12.9494" y1="39.8675" x2="12.9494" y2="44.7539" gradientUnits="userSpaceOnUse"><stop offset="0" stop-color="#494949" stop-opacity="0.4"/><stop offset="1" stop-color="#686868"/></linearGradient><linearGradient id="linear-gradient-2" x1="2.8843" y1="40.5712" x2="2.8843" y2="44.0502" xlink:href="#linear-gradient"/><linearGradient id="linear-gradient-3" x1="19.4982" y1="22.3625" x2="112.4825" y2="22.3625" gradientUnits="userSpaceOnUse"><stop offset="0" stop-color="#3a3a3a" stop-opacity="0.3"/><stop offset="0.8547" stop-color="#3a3a3a"/></linearGradient></defs><title>CD2H_logo</title><path class="cls-1" d="M20.31,22.8153a1.7393,1.7393,0,1,1-1.7393-1.7393A1.7393,1.7393,0,0,1,20.31,22.8153Z"/><path class="cls-1" d="M37.1479,4.236a2.4434,2.4434,0,1,1-2.4433-2.4432A2.4434,2.4434,0,0,1,37.1479,4.236Z"/><path class="cls-1" d="M28.6358,4.236a1.74,1.74,0,1,1-1.7394-1.7394A1.7395,1.7395,0,0,1,28.6358,4.236Z"/><path class="cls-2" d="M31.1525,71.7153a2.4434,2.4434,0,1,1-2.4433-2.4433A2.4432,2.4432,0,0,1,31.1525,71.7153Z"/><path class="cls-2" d="M38.9692,81.6284a2.4432,2.4432,0,1,1-2.4431-2.4434A2.4432,2.4432,0,0,1,38.9692,81.6284Z"/><path class="cls-2" d="M22.64,71.7153A1.7395,1.7395,0,1,1,20.901,69.976,1.7395,1.7395,0,0,1,22.64,71.7153Z"/><circle class="cls-2" cx="14.7039" cy="71.7153" r="1.1168"/><path class="cls-3" d="M15.3927,42.3108a2.4434,2.4434,0,1,1-2.4433-2.4433A2.4432,2.4432,0,0,1,15.3927,42.3108Z"/><path class="cls-4" d="M4.6236,42.3108a1.7394,1.7394,0,1,1-1.7393-1.74A1.7395,1.7395,0,0,1,4.6236,42.3108Z"/><circle class="cls-2" cx="19.4353" cy="52.3498" r="1.7393"/><path class="cls-2" d="M32.1881,81.6284a1.7395,1.7395,0,1,1-1.74-1.7394A1.7393,1.7393,0,0,1,32.1881,81.6284Z"/><path class="cls-2" d="M21.9349,44.7539h7.7362a2.4306,2.4306,0,0,1,0,4.8611H25.5654a2.4434,2.4434,0,1,0,0,4.8867H44.2091a2.4305,2.4305,0,0,1,0,4.861H31.1931a2.4433,2.4433,0,1,0,0,4.8865H47.4557a2.4305,2.4305,0,1,1,0,4.861H36.8206a2.4434,2.4434,0,0,0,0,4.8867H51.0287a2.4307,2.4307,0,0,1,0,4.8613h-8.297a2.6067,2.6067,0,0,0,0,5.2133h45.999l23.7518-41.1393H19.587A2.4293,2.4293,0,0,0,21.9349,44.7539ZM55.79,69.272h-.0023a2.4307,2.4307,0,1,1,0-4.8613H55.79a2.4307,2.4307,0,1,1,0,4.8613Zm6.3294-9.9093h-3.9a2.4305,2.4305,0,1,1,0-4.861h3.9a2.4305,2.4305,0,1,1,0,4.861ZM54.8333,44.7539H67.6985a2.4306,2.4306,0,1,1,0,4.8611H54.8333a2.4306,2.4306,0,0,1,0-4.8611Zm-3.1569,9.7243a2.4305,2.4305,0,1,1,0,4.861h-.927a2.43,2.43,0,0,1,0-4.861ZM37.3605,44.7539H47.4557a2.4306,2.4306,0,1,1,0,4.8611H37.3605a2.4306,2.4306,0,1,1,0-4.8611Z"/><path class="cls-5" d="M42.7132,1.7928a2.5744,2.5744,0,1,0,0,5.1487H51.29a2.4306,2.4306,0,1,1,0,4.8611H36.518a1.8539,1.8539,0,0,0-1.6056.927v0a1.854,1.854,0,0,0,1.6056,2.7811h9.4079a2.4307,2.4307,0,0,1,0,4.8613H31.87a2.3727,2.3727,0,0,0-2.0546,1.186l-.0819.1422a2.3723,2.3723,0,0,0,2.0543,3.5583,2.4305,2.4305,0,1,1,0,4.861H23.6353a2.4433,2.4433,0,0,0,0,4.8865h.4482a2.4307,2.4307,0,0,1,0,4.8613H21.9349a2.4433,2.4433,0,0,0-2.3139,1.6588,2.4006,2.4006,0,0,0-.034,1.4059h92.8955L88.7307,1.7928Zm9.1143,13.7181h3.7849a2.4307,2.4307,0,0,1,0,4.8613H51.8275a2.4307,2.4307,0,0,1,0-4.8613ZM39.21,25.2587H60.9812a2.4305,2.4305,0,1,1,0,4.861H39.21a2.4305,2.4305,0,1,1,0-4.861ZM38.0724,39.8675h-7.285a2.4307,2.4307,0,0,1,0-4.8613h7.285a2.4307,2.4307,0,1,1,0,4.8613Zm28.309,0H45.3138a2.4307,2.4307,0,1,1,0-4.8613H66.3814a2.4307,2.4307,0,1,1,0,4.8613Z"/><path class="cls-1" d="M27.6,22.8153a2.4433,2.4433,0,1,1-2.4434-2.4431A2.4433,2.4433,0,0,1,27.6,22.8153Z"/></svg>