<svg id="Layer_1" data-name="Layer 1" xmlns="http://www.w3.org/2000/svg" xmlns:xlink="http://www.w3.org/1999/xlink" viewBox="0 0 299.7593 170.082"><defs><style>.cls-1,.cls-2{fill:#fff;}.cls-2{opacity:0.5;}.cls-3{fill:url(#linear-gradient);}.cls-4{fill:url(#linear-gradient-2);}.cls-5{fill:url(#linear-gradient-3);}</style><linearGradient id="linear-gradient" x1="111.0121" y1="41.1507" x2="111.0121" y2="45.759" gradientUnits="userSpaceOnUse"><stop offset="0" stop-color="#fff" stop-opacity="0.3"/><stop offset="1" stop-color="#fff" stop-opacity="0.8"/></linearGradient><linearGradient id="linear-gradient-2" x1="101.52" y1="41.8144" x2="101.52" y2="45.0953" xlink:href="#linear-gradient"/><linearGradient id="linear-gradient-3" x1="117.1882" y1="24.6421" x2="204.8796" y2="24.6421" gradientUnits="userSpaceOnUse"><stop offset="0" stop-color="#fff" stop-opacity="0.3"/><stop offset="0.8543" stop-color="#fff"/></linearGradient></defs><title>CD2H_logo</title><path class="cls-1" d="M19.144,116.4321A.4515.4515,0,0,1,19.6,116h.6l10.417,12.0493h.0239v-11.353a.4556.4556,0,0,1,.4561-.4561h1.5361a.472.472,0,0,1,.4561.4561V132.85a.4514.4514,0,0,1-.4561.4321h-.624l-10.417-12.3852h-.0239v11.6889a.4555.4555,0,0,1-.4561.4561H19.6a.4722.4722,0,0,1-.4561-.4561Z"/><path class="cls-1" d="M39.3276,132.4175l7.3687-16.1533A.5622.5622,0,0,1,47.1045,116h.24a.561.561,0,0,1,.4077.2642l7.3208,16.1533a.4237.4237,0,0,1-.4082.624H53.1528a.5593.5593,0,0,1-.5517-.36l-1.4883-3.2885H43.2642c-.48,1.104-.9839,2.184-1.4639,3.2885a.6039.6039,0,0,1-.5523.36H39.7358A.424.424,0,0,1,39.3276,132.4175Zm10.8731-5.0884-2.9522-6.5767h-.12L44.2,127.3291Z"/><path class="cls-1" d="M62.7285,118.4961H58.8154a.4558.4558,0,0,1-.456-.4561v-1.3437a.4559.4559,0,0,1,.456-.4561H69.1367a.4559.4559,0,0,1,.4561.4561V118.04a.4559.4559,0,0,1-.4561.4561H65.2246v14.0893a.4718.4718,0,0,1-.456.4561h-1.584a.4718.4718,0,0,1-.4561-.4561Z"/><path class="cls-1" d="M76.0239,116.6963a.4719.4719,0,0,1,.4561-.4561h1.584a.4719.4719,0,0,1,.456.4561v15.8891a.4718.4718,0,0,1-.456.4561H76.48a.4718.4718,0,0,1-.4561-.4561Z"/><path class="cls-1" d="M94.4087,116a8.6409,8.6409,0,1,1-8.6162,8.6646A8.6248,8.6248,0,0,1,94.4087,116Zm0,14.8813a6.24,6.24,0,1,0-6.2168-6.2167A6.2378,6.2378,0,0,0,94.4087,130.8813Z"/><path class="cls-1" d="M110.32,116.4321a.4511.4511,0,0,1,.4561-.4321h.6006l10.416,12.0493h.0244v-11.353a.4559.4559,0,0,1,.456-.4561h1.5362a.4719.4719,0,0,1,.456.4561V132.85a.4513.4513,0,0,1-.456.4321h-.624l-10.417-12.3852h-.0244v11.6889a.4553.4553,0,0,1-.4561.4561h-1.5117a.4718.4718,0,0,1-.4561-.4561Z"/><path class="cls-1" d="M130.5034,132.4175l7.3682-16.1533A.562.562,0,0,1,138.28,116h.24a.562.562,0,0,1,.4082.2642l7.32,16.1533a.4238.4238,0,0,1-.4082.624h-1.5117a.5607.5607,0,0,1-.5527-.36l-1.4873-3.2885H134.44c-.48,1.104-.9843,2.184-1.4648,3.2885a.6019.6019,0,0,1-.5518.36h-1.5117A.4236.4236,0,0,1,130.5034,132.4175Zm10.8731-5.0884-2.9522-6.5767h-.12l-2.9287,6.5767Z"/><path class="cls-1" d="M152.4868,116.6963a.4559.4559,0,0,1,.4561-.4561h1.584a.4719.4719,0,0,1,.456.4561v14.1128h6.5049a.4561.4561,0,0,1,.456.456v1.32a.4558.4558,0,0,1-.456.4561h-8.5449a.4559.4559,0,0,1-.4561-.4561Z"/><path class="cls-1" d="M184.8618,116a8.3292,8.3292,0,0,1,5.8086,2.2324.4465.4465,0,0,1,.0244.6719l-1.0566,1.08c-.168.2158-.3838.2158-.6,0a6.5052,6.5052,0,0,0-4.1524-1.6079,6.2316,6.2316,0,0,0,.0235,12.457,6.4283,6.4283,0,0,0,4.1289-1.5845.4391.4391,0,0,1,.5761-.0239l1.1036,1.08a.4566.4566,0,0,1-.0235.6479,8.2381,8.2381,0,0,1-5.833,2.3286,8.6409,8.6409,0,1,1,0-17.2817Z"/><path class="cls-1" d="M197.9663,116.6963a.4559.4559,0,0,1,.4561-.4561h9.6a.4553.4553,0,0,1,.4561.4561V118.04a.4552.4552,0,0,1-.4561.4561H200.439v4.8965h6.4082a.4721.4721,0,0,1,.456.456v1.3443a.4555.4555,0,0,1-.456.456H200.439v5.16h7.5839a.4555.4555,0,0,1,.4561.456v1.32a.4552.4552,0,0,1-.4561.4561h-9.6a.4559.4559,0,0,1-.4561-.4561Z"/><path class="cls-1" d="M215.9419,116.4321a.451.451,0,0,1,.456-.4321h.6006l10.4161,12.0493h.0244v-11.353a.4558.4558,0,0,1,.456-.4561h1.5362a.4719.4719,0,0,1,.456.4561V132.85a.4513.4513,0,0,1-.456.4321h-.6241L218.39,120.8965h-.0244v11.6889a.4552.4552,0,0,1-.456.4561h-1.5118a.4718.4718,0,0,1-.456-.4561Z"/><path class="cls-1" d="M240.686,118.4961h-3.9131a.4558.4558,0,0,1-.456-.4561v-1.3437a.4559.4559,0,0,1,.456-.4561h10.3213a.4559.4559,0,0,1,.4561.4561V118.04a.4559.4559,0,0,1-.4561.4561h-3.9121v14.0893a.4718.4718,0,0,1-.456.4561h-1.584a.4719.4719,0,0,1-.4561-.4561Z"/><path class="cls-1" d="M253.981,116.6963a.4558.4558,0,0,1,.456-.4561h9.6006a.4553.4553,0,0,1,.4561.4561V118.04a.4553.4553,0,0,1-.4561.4561h-7.584v4.8965h6.4082a.4722.4722,0,0,1,.4561.456v1.3443a.4555.4555,0,0,1-.4561.456h-6.4082v5.16h7.584a.4556.4556,0,0,1,.4561.456v1.32a.4553.4553,0,0,1-.4561.4561H254.437a.4558.4558,0,0,1-.456-.4561Z"/><path class="cls-1" d="M271.9565,116.6963a.4559.4559,0,0,1,.4561-.4561h6.5283a5.178,5.178,0,0,1,5.2324,5.1363,5.3278,5.3278,0,0,1-3.5517,4.8725l3.2881,6.0962a.4543.4543,0,0,1-.4082.6963h-1.8721a.4413.4413,0,0,1-.3838-.2158l-3.1924-6.3609h-3.624v6.1206a.4725.4725,0,0,1-.4561.4561h-1.56a.4559.4559,0,0,1-.4561-.4561Zm6.793,7.7046a2.9817,2.9817,0,0,0,2.9277-2.9766,2.9414,2.9414,0,0,0-2.9277-2.8559h-4.2724v5.8325Z"/><path class="cls-1" d="M19,145.4966a.4555.4555,0,0,1,.4561-.4561h9.769a.4555.4555,0,0,1,.4561.4561v1.9678a.4555.4555,0,0,1-.4561.456H22.1206v4.5127h5.9282a.4718.4718,0,0,1,.4561.4561v1.9682a.4717.4717,0,0,1-.4561.4556H22.1206v6.0727a.4722.4722,0,0,1-.456.4561H19.4561A.4555.4555,0,0,1,19,161.3857Z"/><path class="cls-1" d="M41.4648,144.8a8.6409,8.6409,0,1,1-8.6171,8.6645A8.6252,8.6252,0,0,1,41.4648,144.8Zm0,14.1611a5.5206,5.5206,0,1,0-5.4965-5.4966A5.5315,5.5315,0,0,0,41.4648,158.9614Z"/><path class="cls-1" d="M54.7593,145.4966a.4555.4555,0,0,1,.456-.4561H62.08a5.1991,5.1991,0,0,1,5.2324,5.16,5.2963,5.2963,0,0,1-3.5527,4.8486l3.289,6.0962a.4543.4543,0,0,1-.4082.6963H64.12a.4116.4116,0,0,1-.3838-.2158l-3.1924-6.3609H57.88v6.1206a.4722.4722,0,0,1-.4561.4561H55.2153a.4555.4555,0,0,1-.456-.4561Zm7.0571,7.2a2.4448,2.4448,0,0,0,2.376-2.4478,2.3883,2.3883,0,0,0-2.376-2.3286H57.9038v4.7764Z"/><path class="cls-1" d="M79.0718,145.4966a.4506.4506,0,0,1,.4316-.4561h5.6885a8.4007,8.4007,0,1,1,0,16.8013H79.5034a.4506.4506,0,0,1-.4316-.4561Zm5.832,13.417a5.4851,5.4851,0,0,0,0-10.9688H82.1675v10.9688Z"/><path class="cls-1" d="M95.9673,161.2178l7.4648-16.1533a.431.431,0,0,1,.4082-.2642h.2393a.4084.4084,0,0,1,.4082.2642l7.3926,16.1533a.4236.4236,0,0,1-.4082.624h-2.0879a.6906.6906,0,0,1-.6963-.48l-1.1758-2.5923h-7.1768L99.16,161.3618a.7239.7239,0,0,1-.6963.48H96.3755A.4238.4238,0,0,1,95.9673,161.2178Zm10.3691-5.1123-2.4-5.2808h-.0722l-2.3516,5.2808Z"/><path class="cls-1" d="M116.9448,147.92h-3.6719a.4552.4552,0,0,1-.456-.456v-1.9678a.4552.4552,0,0,1,.456-.4561h10.4883a.4559.4559,0,0,1,.4561.4561v1.9678a.4558.4558,0,0,1-.4561.456h-3.6718v13.4653a.4725.4725,0,0,1-.4561.4561h-2.2324a.4718.4718,0,0,1-.4561-.4561Z"/><path class="cls-1" d="M125.1274,161.2178l7.4649-16.1533a.431.431,0,0,1,.4082-.2642h.2392a.4082.4082,0,0,1,.4082.2642l7.3926,16.1533a.4236.4236,0,0,1-.4082.624h-2.0879a.6907.6907,0,0,1-.6963-.48l-1.1757-2.5923h-7.1768l-1.1758,2.5923a.7239.7239,0,0,1-.6963.48h-2.0879A.4239.4239,0,0,1,125.1274,161.2178Zm10.3692-5.1123-2.4-5.2808h-.0723l-2.3515,5.2808Z"/><path class="cls-1" d="M153.8081,147.92h-3.6719a.4552.4552,0,0,1-.456-.456v-1.9678a.4552.4552,0,0,1,.456-.4561h10.4883a.4559.4559,0,0,1,.4561.4561v1.9678a.4558.4558,0,0,1-.4561.456h-3.6719v13.4653a.4725.4725,0,0,1-.456.4561h-2.2324a.4718.4718,0,0,1-.4561-.4561Z"/><path class="cls-1" d="M172.3354,144.8a8.6409,8.6409,0,1,1-8.6162,8.6645A8.6249,8.6249,0,0,1,172.3354,144.8Zm0,14.1611a5.5206,5.5206,0,1,0-5.496-5.4966A5.5316,5.5316,0,0,0,172.3354,158.9614Z"/><path class="cls-1" d="M192.4458,145.4966a.4718.4718,0,0,1,.4561-.4561h2.2314a.4553.4553,0,0,1,.4561.4561v6.36h7.8252v-6.36a.4552.4552,0,0,1,.456-.4561h2.208a.4719.4719,0,0,1,.4561.4561v15.8891a.4719.4719,0,0,1-.4561.4561h-2.208a.4552.4552,0,0,1-.456-.4561v-6.6245h-7.8252v6.6245a.4553.4553,0,0,1-.4561.4561h-2.2314a.4718.4718,0,0,1-.4561-.4561Z"/><path class="cls-1" d="M212.4146,145.4966a.4552.4552,0,0,1,.456-.4561h9.7686a.4558.4558,0,0,1,.456.4561v1.9678a.4558.4558,0,0,1-.456.456h-7.1045v3.9365h5.9287a.4726.4726,0,0,1,.456.4561v1.9922a.4561.4561,0,0,1-.456.456h-5.9287v4.2h7.1045a.4562.4562,0,0,1,.456.4561v1.9682a.4558.4558,0,0,1-.456.4561h-9.7686a.4552.4552,0,0,1-.456-.4561Z"/><path class="cls-1" d="M225.854,161.2178l7.4648-16.1533a.4312.4312,0,0,1,.4083-.2642h.2392a.4084.4084,0,0,1,.4082.2642l7.3926,16.1533a.4236.4236,0,0,1-.4082.624H239.271a.6906.6906,0,0,1-.6963-.48l-1.1758-2.5923h-7.1767l-1.1758,2.5923a.7239.7239,0,0,1-.6963.48h-2.0879A.4239.4239,0,0,1,225.854,161.2178Zm10.3691-5.1123-2.4-5.2808h-.0723l-2.3516,5.2808Z"/><path class="cls-1" d="M245.4624,145.4966a.4552.4552,0,0,1,.4561-.4561h2.208a.4718.4718,0,0,1,.456.4561v13.4648h6.12a.4555.4555,0,0,1,.4561.4561v1.9682a.4552.4552,0,0,1-.4561.4561h-8.7841a.4552.4552,0,0,1-.4561-.4561Z"/><path class="cls-1" d="M260.3911,147.92h-3.6728a.455.455,0,0,1-.4551-.456v-1.9678a.455.455,0,0,1,.4551-.4561h10.4892a.4552.4552,0,0,1,.4561.4561v1.9678a.4552.4552,0,0,1-.4561.456h-3.6719v13.4653a.4725.4725,0,0,1-.456.4561h-2.2324a.4718.4718,0,0,1-.4561-.4561Z"/><path class="cls-1" d="M271.67,145.4966a.4718.4718,0,0,1,.4561-.4561h2.2314a.4552.4552,0,0,1,.4561.4561v6.36h7.8252v-6.36a.4552.4552,0,0,1,.456-.4561h2.208a.4718.4718,0,0,1,.4561.4561v15.8891a.4718.4718,0,0,1-.4561.4561h-2.208a.4552.4552,0,0,1-.456-.4561v-6.6245H274.814v6.6245a.4552.4552,0,0,1-.4561.4561h-2.2314a.4718.4718,0,0,1-.4561-.4561Z"/><path class="cls-2" d="M124.829,25.0692a2.3042,2.3042,0,1,1-2.3043-2.3041A2.3042,2.3042,0,0,1,124.829,25.0692Z"/><path class="cls-2" d="M117.9538,25.0692a1.64,1.64,0,1,1-1.64-1.64A1.64,1.64,0,0,1,117.9538,25.0692Z"/><path class="cls-2" d="M133.8333,7.5474a2.3043,2.3043,0,1,1-2.3043-2.3041A2.3044,2.3044,0,0,1,133.8333,7.5474Z"/><path class="cls-2" d="M125.8056,7.5474a1.64,1.64,0,1,1-1.64-1.64A1.64,1.64,0,0,1,125.8056,7.5474Z"/><path class="cls-1" d="M128.1791,71.1857a2.3043,2.3043,0,1,1-2.3043-2.3043A2.3041,2.3041,0,0,1,128.1791,71.1857Z"/><path class="cls-1" d="M135.5509,80.5344a2.3042,2.3042,0,1,1-2.3041-2.3042A2.3042,2.3042,0,0,1,135.5509,80.5344Z"/><path class="cls-1" d="M120.1515,71.1857a1.64,1.64,0,1,1-1.64-1.64A1.64,1.64,0,0,1,120.1515,71.1857Z"/><circle class="cls-1" cx="112.6668" cy="71.1857" r="1.0532"/><path class="cls-3" d="M113.3164,43.4549a2.3043,2.3043,0,1,1-2.3043-2.3042A2.3042,2.3042,0,0,1,113.3164,43.4549Z"/><path class="cls-4" d="M103.16,43.4549a1.64,1.64,0,1,1-1.64-1.6405A1.64,1.64,0,0,1,103.16,43.4549Z"/><circle class="cls-1" cx="117.1288" cy="52.9224" r="1.6403"/><path class="cls-1" d="M129.1557,80.5344a1.64,1.64,0,1,1-1.6405-1.64A1.64,1.64,0,0,1,129.1557,80.5344Z"/><path class="cls-1" d="M119.4862,45.759h7.2958a2.2922,2.2922,0,1,1,0,4.5843H122.91a2.3043,2.3043,0,0,0,0,4.6086h17.5825a2.2922,2.2922,0,1,1,0,4.5843H128.2174a2.3042,2.3042,0,1,0,0,4.6083h15.3369a2.2922,2.2922,0,0,1,0,4.5844h-10.03a2.3043,2.3043,0,0,0,0,4.6085h13.3993a2.2923,2.2923,0,0,1,0,4.5846h-7.8247a2.4583,2.4583,0,0,0,0,4.9165H182.48l22.4-38.7976H117.272A2.291,2.291,0,0,0,119.4862,45.759Zm31.9276,23.1224h-.0023a2.2923,2.2923,0,1,1,0-4.5846h.0023a2.2923,2.2923,0,1,1,0,4.5846Zm5.9691-9.3452H153.705a2.2922,2.2922,0,1,1,0-4.5843h3.6779a2.2922,2.2922,0,1,1,0,4.5843Zm-6.871-13.7772h12.1329a2.2922,2.2922,0,1,1,0,4.5843H150.5119a2.2922,2.2922,0,0,1,0-4.5843ZM147.5348,54.93a2.2922,2.2922,0,1,1,0,4.5843h-.8743a2.2922,2.2922,0,1,1,0-4.5843ZM134.0337,45.759h9.5206a2.2922,2.2922,0,1,1,0,4.5843h-9.5206a2.2922,2.2922,0,1,1,0-4.5843Z"/><path class="cls-5" d="M139.0818,5.2433a2.4278,2.4278,0,1,0,0,4.8556h8.0888a2.2922,2.2922,0,0,1,0,4.5844H133.2392a1.7485,1.7485,0,0,0-1.5142.8742v0a1.7484,1.7484,0,0,0,1.5142,2.6227h8.8724a2.2923,2.2923,0,0,1,0,4.5846H128.8554a2.2376,2.2376,0,0,0-1.9376,1.1184l-.0773.1342a2.2372,2.2372,0,0,0,1.9374,3.3557,2.2922,2.2922,0,1,1,0,4.5844H121.09a2.3042,2.3042,0,0,0,0,4.6083h.4227a2.2923,2.2923,0,0,1,0,4.5846h-2.0263a2.3042,2.3042,0,0,0-2.1822,1.5644,2.2626,2.2626,0,0,0-.032,1.3258H204.88L182.48,5.2433Zm8.5954,12.9372h3.57a2.2923,2.2923,0,0,1,0,4.5846h-3.57a2.2923,2.2923,0,0,1,0-4.5846Zm-11.8994,9.1929H156.31a2.2922,2.2922,0,1,1,0,4.5844H135.7778a2.2922,2.2922,0,1,1,0-4.5844Zm-1.0727,13.7773h-6.87a2.2923,2.2923,0,0,1,0-4.5846h6.87a2.2923,2.2923,0,1,1,0,4.5846Zm26.6976,0H141.5343a2.2923,2.2923,0,1,1,0-4.5846h19.8684a2.2923,2.2923,0,1,1,0,4.5846Z"/></svg>