<svg id="Layer_1" data-name="Layer 1" xmlns="http://www.w3.org/2000/svg" xmlns:xlink="http://www.w3.org/1999/xlink" viewBox="0 0 403.7593 86.082"><defs><style>.cls-1{fill:#3a3a3a;}.cls-2{fill:#b1b1b2;}.cls-3{fill:url(#linear-gradient);}.cls-4{fill:url(#linear-gradient-2);}.cls-5{fill:url(#linear-gradient-3);}</style><linearGradient id="linear-gradient" x1="12.9494" y1="39.8675" x2="12.9494" y2="44.7539" gradientUnits="userSpaceOnUse"><stop offset="0" stop-color="#494949" stop-opacity="0.4"/><stop offset="1" stop-color="#686868"/></linearGradient><linearGradient id="linear-gradient-2" x1="2.8843" y1="40.5712" x2="2.8843" y2="44.0502" xlink:href="#linear-gradient"/><linearGradient id="linear-gradient-3" x1="19.4982" y1="22.3625" x2="112.4825" y2="22.3625" gradientUnits="userSpaceOnUse"><stop offset="0" stop-color="#3a3a3a" stop-opacity="0.3"/><stop offset="0.8547" stop-color="#3a3a3a"/></linearGradient></defs><title>CD2H_logo</title><path class="cls-1" d="M134.144,21.4326A.4519.4519,0,0,1,134.6,21h.6l10.4175,12.05h.0234V21.6963a.4559.4559,0,0,1,.4561-.4561h1.5361a.472.472,0,0,1,.4561.4561V37.85a.4515.4515,0,0,1-.4561.4326h-.624l-10.417-12.3857h-.0239V37.5859a.4555.4555,0,0,1-.4561.4561H134.6a.4722.4722,0,0,1-.4561-.4561Z"/><path class="cls-1" d="M154.3276,37.418l7.3692-16.1534A.5614.5614,0,0,1,162.105,21h.24a.56.56,0,0,1,.4072.2646l7.3213,16.1534a.4239.4239,0,0,1-.4082.624h-1.5127a.5606.5606,0,0,1-.5517-.36l-1.4883-3.288h-7.8486c-.48,1.1035-.9834,2.1835-1.4639,3.288a.6035.6035,0,0,1-.5518.36h-1.5127A.4243.4243,0,0,1,154.3276,37.418Zm10.8731-5.0889-2.9522-6.5762h-.12l-2.9277,6.5762Z"/><path class="cls-1" d="M177.729,23.4961h-3.9131a.4558.4558,0,0,1-.456-.4561V21.6963a.4558.4558,0,0,1,.456-.4561h10.3213a.4559.4559,0,0,1,.4561.4561V23.04a.4559.4559,0,0,1-.4561.4561h-3.9121v14.09a.4718.4718,0,0,1-.4561.4561h-1.5839a.4718.4718,0,0,1-.4561-.4561Z"/><path class="cls-1" d="M191.0239,21.6963a.4719.4719,0,0,1,.4561-.4561h1.584a.4719.4719,0,0,1,.456.4561v15.89a.4718.4718,0,0,1-.456.4561H191.48a.4718.4718,0,0,1-.4561-.4561Z"/><path class="cls-1" d="M209.4087,21a8.6411,8.6411,0,1,1-8.6162,8.665A8.6249,8.6249,0,0,1,209.4087,21Zm0,14.8818a6.2407,6.2407,0,1,0-6.2168-6.2168A6.2378,6.2378,0,0,0,209.4087,35.8818Z"/><path class="cls-1" d="M225.32,21.4326A.4515.4515,0,0,1,225.7759,21h.6006l10.416,12.05h.0244V21.6963a.4559.4559,0,0,1,.456-.4561h1.5362a.4719.4719,0,0,1,.456.4561V37.85a.4515.4515,0,0,1-.456.4326h-.624l-10.417-12.3857h-.0244V37.5859a.4553.4553,0,0,1-.4561.4561h-1.5117a.4718.4718,0,0,1-.4561-.4561Z"/><path class="cls-1" d="M245.5034,37.418l7.3682-16.1534A.5614.5614,0,0,1,253.28,21h.24a.5614.5614,0,0,1,.4082.2646l7.32,16.1534a.4239.4239,0,0,1-.4082.624h-1.5117a.5611.5611,0,0,1-.5527-.36l-1.4873-3.288H249.44c-.48,1.1035-.9843,2.1835-1.4648,3.288a.6023.6023,0,0,1-.5518.36h-1.5117A.4237.4237,0,0,1,245.5034,37.418Zm10.8731-5.0889-2.9522-6.5762h-.12l-2.9287,6.5762Z"/><path class="cls-1" d="M267.4868,21.6963a.4559.4559,0,0,1,.4561-.4561h1.584a.4719.4719,0,0,1,.456.4561V35.81h6.5049a.4558.4558,0,0,1,.456.456v1.32a.4558.4558,0,0,1-.456.4561h-8.5449a.4559.4559,0,0,1-.4561-.4561Z"/><path class="cls-1" d="M299.8618,21a8.3314,8.3314,0,0,1,5.8086,2.2324.4465.4465,0,0,1,.0244.6719l-1.0566,1.08c-.168.2158-.3838.2158-.6,0a6.5074,6.5074,0,0,0-4.1524-1.6074,6.2316,6.2316,0,0,0,.0235,12.457,6.426,6.426,0,0,0,4.1289-1.585.439.439,0,0,1,.5761-.0234l1.1036,1.08a.456.456,0,0,1-.0235.6474,8.2364,8.2364,0,0,1-5.833,2.3291,8.6411,8.6411,0,1,1,0-17.2822Z"/><path class="cls-1" d="M312.9663,21.6963a.4559.4559,0,0,1,.4561-.4561h9.6005a.4553.4553,0,0,1,.4561.4561V23.04a.4552.4552,0,0,1-.4561.4561H315.439v4.8965h6.4082a.4725.4725,0,0,1,.456.456v1.3448a.4558.4558,0,0,1-.456.456H315.439v5.16h7.5839a.4552.4552,0,0,1,.4561.456v1.32a.4552.4552,0,0,1-.4561.4561h-9.6005a.4559.4559,0,0,1-.4561-.4561Z"/><path class="cls-1" d="M330.9419,21.4326a.4515.4515,0,0,1,.456-.4326h.6006l10.4161,12.05h.0244V21.6963a.4558.4558,0,0,1,.456-.4561h1.5362a.4719.4719,0,0,1,.456.4561V37.85a.4515.4515,0,0,1-.456.4326h-.6241L333.39,25.8965h-.0244V37.5859a.4552.4552,0,0,1-.456.4561h-1.5118a.4718.4718,0,0,1-.456-.4561Z"/><path class="cls-1" d="M355.686,23.4961h-3.9131a.4558.4558,0,0,1-.456-.4561V21.6963a.4559.4559,0,0,1,.456-.4561h10.3213a.4559.4559,0,0,1,.4561.4561V23.04a.4559.4559,0,0,1-.4561.4561h-3.9121v14.09a.4718.4718,0,0,1-.456.4561h-1.584a.4719.4719,0,0,1-.4561-.4561Z"/><path class="cls-1" d="M368.981,21.6963a.4558.4558,0,0,1,.456-.4561h9.6006a.4553.4553,0,0,1,.4561.4561V23.04a.4553.4553,0,0,1-.4561.4561h-7.584v4.8965h6.4082a.4725.4725,0,0,1,.4561.456v1.3448a.4558.4558,0,0,1-.4561.456h-6.4082v5.16h7.584a.4553.4553,0,0,1,.4561.456v1.32a.4553.4553,0,0,1-.4561.4561H369.437a.4558.4558,0,0,1-.456-.4561Z"/><path class="cls-1" d="M386.9565,21.6963a.4559.4559,0,0,1,.4561-.4561h6.5283a5.1784,5.1784,0,0,1,5.2324,5.1368,5.3266,5.3266,0,0,1-3.5517,4.872l3.2881,6.0967a.4543.4543,0,0,1-.4082.6963h-1.8721a.4413.4413,0,0,1-.3838-.2158l-3.1924-6.3614h-3.624v6.1211a.4725.4725,0,0,1-.4561.4561h-1.56a.4559.4559,0,0,1-.4561-.4561Zm6.793,7.7051a2.9817,2.9817,0,0,0,2.9277-2.9766,2.9415,2.9415,0,0,0-2.9277-2.8564h-4.2724v5.833Z"/><path class="cls-1" d="M134,50.4971a.4555.4555,0,0,1,.4561-.4561h9.769a.4555.4555,0,0,1,.4561.4561v1.9677a.4555.4555,0,0,1-.4561.4561h-7.1045v4.5127h5.9282a.4718.4718,0,0,1,.4561.456v1.9678a.4718.4718,0,0,1-.4561.4561h-5.9282v6.0722a.4722.4722,0,0,1-.456.4561h-2.2085A.4555.4555,0,0,1,134,66.3857Z"/><path class="cls-1" d="M156.4653,49.8008a8.6406,8.6406,0,1,1-8.6172,8.664A8.6253,8.6253,0,0,1,156.4653,49.8008Zm0,14.1611a5.5206,5.5206,0,1,0-5.497-5.4971A5.5318,5.5318,0,0,0,156.4653,63.9619Z"/><path class="cls-1" d="M169.7593,50.4971a.4558.4558,0,0,1,.456-.4561h6.8653a5.1988,5.1988,0,0,1,5.2324,5.16A5.2973,5.2973,0,0,1,178.76,60.05l3.289,6.0957a.4542.4542,0,0,1-.4082.6963h-2.52a.4116.4116,0,0,1-.3838-.2158l-3.1924-6.36H172.88v6.12a.4725.4725,0,0,1-.4561.4561h-2.209a.4558.4558,0,0,1-.456-.4561Zm7.0576,7.2a2.4452,2.4452,0,0,0,2.376-2.4483,2.3878,2.3878,0,0,0-2.376-2.3281h-3.9131v4.7764Z"/><path class="cls-1" d="M194.0718,50.4971a.4506.4506,0,0,1,.4316-.4561h5.6885a8.4,8.4,0,1,1,0,16.8008h-5.6885a.4506.4506,0,0,1-.4316-.4561Zm5.832,13.417a5.4851,5.4851,0,0,0,0-10.9688h-2.7363V63.9141Z"/><path class="cls-1" d="M210.9673,66.2178l7.4648-16.1533a.4314.4314,0,0,1,.4082-.2637h.2393a.4087.4087,0,0,1,.4082.2637L226.88,66.2178a.4235.4235,0,0,1-.4082.624h-2.0879a.69.69,0,0,1-.6963-.48L222.5122,63.77h-7.1768L214.16,66.3623a.7241.7241,0,0,1-.6963.48h-2.0879A.4237.4237,0,0,1,210.9673,66.2178Zm10.3691-5.1123-2.4-5.28h-.0722l-2.3516,5.28Z"/><path class="cls-1" d="M231.9448,52.9209h-3.6719a.4552.4552,0,0,1-.456-.4561V50.4971a.4552.4552,0,0,1,.456-.4561h10.4883a.4559.4559,0,0,1,.4561.4561v1.9677a.4559.4559,0,0,1-.4561.4561h-3.6718V66.3857a.4725.4725,0,0,1-.4561.4561h-2.2324a.4718.4718,0,0,1-.4561-.4561Z"/><path class="cls-1" d="M240.1274,66.2178l7.4649-16.1533a.4314.4314,0,0,1,.4082-.2637h.2392a.4085.4085,0,0,1,.4082.2637l7.3926,16.1533a.4235.4235,0,0,1-.4082.624h-2.0879a.69.69,0,0,1-.6963-.48L251.6724,63.77h-7.1768L243.32,66.3623a.7241.7241,0,0,1-.6963.48h-2.0879A.4238.4238,0,0,1,240.1274,66.2178Zm10.3692-5.1123-2.4-5.28h-.0723l-2.3515,5.28Z"/><path class="cls-1" d="M268.8081,52.9209h-3.6719a.4552.4552,0,0,1-.456-.4561V50.4971a.4552.4552,0,0,1,.456-.4561h10.4883a.4559.4559,0,0,1,.4561.4561v1.9677a.4559.4559,0,0,1-.4561.4561h-3.6719V66.3857a.4725.4725,0,0,1-.456.4561h-2.2324a.4718.4718,0,0,1-.4561-.4561Z"/><path class="cls-1" d="M287.3354,49.8008a8.6406,8.6406,0,1,1-8.6162,8.664A8.6247,8.6247,0,0,1,287.3354,49.8008Zm0,14.1611a5.5206,5.5206,0,1,0-5.496-5.4971A5.532,5.532,0,0,0,287.3354,63.9619Z"/><path class="cls-1" d="M307.4458,50.4971a.4718.4718,0,0,1,.4561-.4561h2.2314a.4553.4553,0,0,1,.4561.4561v6.36h7.8252v-6.36a.4552.4552,0,0,1,.456-.4561h2.208a.4719.4719,0,0,1,.4561.4561V66.3857a.4719.4719,0,0,1-.4561.4561h-2.208a.4552.4552,0,0,1-.456-.4561v-6.624h-7.8252v6.624a.4553.4553,0,0,1-.4561.4561h-2.2314a.4718.4718,0,0,1-.4561-.4561Z"/><path class="cls-1" d="M327.4146,50.4971a.4552.4552,0,0,1,.456-.4561h9.7686a.4558.4558,0,0,1,.456.4561v1.9677a.4558.4558,0,0,1-.456.4561h-7.1045v3.9365h5.9287a.4725.4725,0,0,1,.456.4561v1.9922a.4565.4565,0,0,1-.456.456h-5.9287v4.2h7.1045a.4558.4558,0,0,1,.456.4561v1.9677a.4558.4558,0,0,1-.456.4561h-9.7686a.4552.4552,0,0,1-.456-.4561Z"/><path class="cls-1" d="M340.854,66.2178l7.4648-16.1533a.4315.4315,0,0,1,.4083-.2637h.2392a.4087.4087,0,0,1,.4082.2637l7.3926,16.1533a.4235.4235,0,0,1-.4082.624H354.271a.69.69,0,0,1-.6963-.48L352.3989,63.77h-7.1767l-1.1758,2.5928a.7241.7241,0,0,1-.6963.48h-2.0879A.4238.4238,0,0,1,340.854,66.2178Zm10.3691-5.1123-2.4-5.28h-.0723l-2.3516,5.28Z"/><path class="cls-1" d="M360.4624,50.4971a.4552.4552,0,0,1,.4561-.4561h2.208a.4718.4718,0,0,1,.456.4561V63.9619h6.12a.4552.4552,0,0,1,.4561.4561v1.9677a.4552.4552,0,0,1-.4561.4561h-8.7841a.4552.4552,0,0,1-.4561-.4561Z"/><path class="cls-1" d="M375.3911,52.9209h-3.6728a.455.455,0,0,1-.4551-.4561V50.4971a.455.455,0,0,1,.4551-.4561h10.4892a.4552.4552,0,0,1,.4561.4561v1.9677a.4552.4552,0,0,1-.4561.4561h-3.6719V66.3857a.4725.4725,0,0,1-.456.4561h-2.2324a.4718.4718,0,0,1-.4561-.4561Z"/><path class="cls-1" d="M386.67,50.4971a.4718.4718,0,0,1,.4561-.4561h2.2314a.4552.4552,0,0,1,.4561.4561v6.36h7.8252v-6.36a.4552.4552,0,0,1,.456-.4561h2.208a.4718.4718,0,0,1,.4561.4561V66.3857a.4718.4718,0,0,1-.4561.4561h-2.208a.4552.4552,0,0,1-.456-.4561v-6.624H389.814v6.624a.4552.4552,0,0,1-.4561.4561h-2.2314a.4718.4718,0,0,1-.4561-.4561Z"/><path class="cls-2" d="M20.31,22.8153a1.7393,1.7393,0,1,1-1.7393-1.7393A1.7393,1.7393,0,0,1,20.31,22.8153Z"/><path class="cls-2" d="M37.1479,4.236a2.4434,2.4434,0,1,1-2.4433-2.4432A2.4434,2.4434,0,0,1,37.1479,4.236Z"/><path class="cls-2" d="M28.6358,4.236a1.74,1.74,0,1,1-1.7394-1.7394A1.7395,1.7395,0,0,1,28.6358,4.236Z"/><path class="cls-1" d="M31.1525,71.7153a2.4434,2.4434,0,1,1-2.4433-2.4433A2.4432,2.4432,0,0,1,31.1525,71.7153Z"/><path class="cls-1" d="M38.9692,81.6284a2.4432,2.4432,0,1,1-2.4431-2.4434A2.4432,2.4432,0,0,1,38.9692,81.6284Z"/><path class="cls-1" d="M22.64,71.7153A1.7395,1.7395,0,1,1,20.901,69.976,1.7395,1.7395,0,0,1,22.64,71.7153Z"/><circle class="cls-1" cx="14.7039" cy="71.7153" r="1.1168"/><path class="cls-3" d="M15.3927,42.3108a2.4434,2.4434,0,1,1-2.4433-2.4433A2.4432,2.4432,0,0,1,15.3927,42.3108Z"/><path class="cls-4" d="M4.6236,42.3108a1.7394,1.7394,0,1,1-1.7393-1.74A1.7395,1.7395,0,0,1,4.6236,42.3108Z"/><circle class="cls-1" cx="19.4353" cy="52.3498" r="1.7393"/><path class="cls-1" d="M32.1881,81.6284a1.7395,1.7395,0,1,1-1.74-1.7394A1.7393,1.7393,0,0,1,32.1881,81.6284Z"/><path class="cls-1" d="M21.9349,44.7539h7.7362a2.4306,2.4306,0,0,1,0,4.8611H25.5654a2.4434,2.4434,0,1,0,0,4.8867H44.2091a2.4305,2.4305,0,0,1,0,4.861H31.1931a2.4433,2.4433,0,1,0,0,4.8865H47.4557a2.4305,2.4305,0,1,1,0,4.861H36.8206a2.4434,2.4434,0,0,0,0,4.8867H51.0287a2.4307,2.4307,0,0,1,0,4.8613h-8.297a2.6067,2.6067,0,0,0,0,5.2133h45.999l23.7518-41.1393H19.587A2.4293,2.4293,0,0,0,21.9349,44.7539ZM55.79,69.272h-.0023a2.4307,2.4307,0,1,1,0-4.8613H55.79a2.4307,2.4307,0,1,1,0,4.8613Zm6.3294-9.9093h-3.9a2.4305,2.4305,0,1,1,0-4.861h3.9a2.4305,2.4305,0,1,1,0,4.861ZM54.8333,44.7539H67.6985a2.4306,2.4306,0,1,1,0,4.8611H54.8333a2.4306,2.4306,0,0,1,0-4.8611Zm-3.1569,9.7243a2.4305,2.4305,0,1,1,0,4.861h-.927a2.43,2.43,0,0,1,0-4.861ZM37.3605,44.7539H47.4557a2.4306,2.4306,0,1,1,0,4.8611H37.3605a2.4306,2.4306,0,1,1,0-4.8611Z"/><path class="cls-5" d="M42.7132,1.7928a2.5744,2.5744,0,1,0,0,5.1487H51.29a2.4306,2.4306,0,1,1,0,4.8611H36.518a1.8539,1.8539,0,0,0-1.6056.927v0a1.854,1.854,0,0,0,1.6056,2.7811h9.4079a2.4307,2.4307,0,0,1,0,4.8613H31.87a2.3727,2.3727,0,0,0-2.0546,1.186l-.0819.1422a2.3723,2.3723,0,0,0,2.0543,3.5583,2.4305,2.4305,0,1,1,0,4.861H23.6353a2.4433,2.4433,0,0,0,0,4.8865h.4482a2.4307,2.4307,0,0,1,0,4.8613H21.9349a2.4433,2.4433,0,0,0-2.3139,1.6588,2.4006,2.4006,0,0,0-.034,1.4059h92.8955L88.7307,1.7928Zm9.1143,13.7181h3.7849a2.4307,2.4307,0,0,1,0,4.8613H51.8275a2.4307,2.4307,0,0,1,0-4.8613ZM39.21,25.2587H60.9812a2.4305,2.4305,0,1,1,0,4.861H39.21a2.4305,2.4305,0,1,1,0-4.861ZM38.0724,39.8675h-7.285a2.4307,2.4307,0,0,1,0-4.8613h7.285a2.4307,2.4307,0,1,1,0,4.8613Zm28.309,0H45.3138a2.4307,2.4307,0,1,1,0-4.8613H66.3814a2.4307,2.4307,0,1,1,0,4.8613Z"/><path class="cls-2" d="M27.6,22.8153a2.4433,2.4433,0,1,1-2.4434-2.4431A2.4433,2.4433,0,0,1,27.6,22.8153Z"/></svg>