<svg id="Layer_1" data-name="Layer 1" xmlns="http://www.w3.org/2000/svg" xmlns:xlink="http://www.w3.org/1999/xlink" viewBox="0 0 119.473 89"><defs><style>.cls-1{fill:#b6cbd1;}.cls-2{fill:#a6bfc7;opacity:0.5;}.cls-3{fill:#4c7e8e;}.cls-4{fill:url(#linear-gradient);}</style><linearGradient id="linear-gradient" x1="21.3178" y1="24.4302" x2="114.3021" y2="24.4302" gradientUnits="userSpaceOnUse"><stop offset="0" stop-color="#4c7e8e" stop-opacity="0.3"/><stop offset="0.8543" stop-color="#4c7e8e"/></linearGradient></defs><title>CD2H_logo</title><path class="cls-1" d="M29.42,24.883A2.4433,2.4433,0,1,1,26.9764,22.44,2.4433,2.4433,0,0,1,29.42,24.883Z"/><path class="cls-1" d="M22.13,24.883A1.7394,1.7394,0,1,1,20.39,23.1437,1.7393,1.7393,0,0,1,22.13,24.883Z"/><path class="cls-2" d="M38.9675,6.3037a2.4434,2.4434,0,1,1-2.4433-2.4431A2.4434,2.4434,0,0,1,38.9675,6.3037Z"/><path class="cls-2" d="M30.4553,6.3037A1.7395,1.7395,0,1,1,28.716,4.5643,1.74,1.74,0,0,1,30.4553,6.3037Z"/><path class="cls-3" d="M32.9721,73.783A2.4434,2.4434,0,1,1,30.5287,71.34,2.4432,2.4432,0,0,1,32.9721,73.783Z"/><path class="cls-3" d="M40.7888,83.6961a2.4433,2.4433,0,1,1-2.4431-2.4434A2.4432,2.4432,0,0,1,40.7888,83.6961Z"/><path class="cls-3" d="M24.46,73.783a1.7395,1.7395,0,1,1-1.7393-1.7393A1.7394,1.7394,0,0,1,24.46,73.783Z"/><circle class="cls-3" cx="16.5235" cy="73.783" r="1.1168"/><path class="cls-1" d="M17.2123,44.3785a2.4434,2.4434,0,1,1-2.4434-2.4433A2.4432,2.4432,0,0,1,17.2123,44.3785Z"/><path class="cls-1" d="M6.4432,44.3785A1.7394,1.7394,0,1,1,4.7039,42.639,1.7394,1.7394,0,0,1,6.4432,44.3785Z"/><circle class="cls-3" cx="21.2548" cy="54.4175" r="1.7393"/><path class="cls-3" d="M34.0077,83.6961a1.74,1.74,0,1,1-1.74-1.7394A1.7393,1.7393,0,0,1,34.0077,83.6961Z"/><path class="cls-3" d="M23.7545,46.8216h7.7362a2.4306,2.4306,0,0,1,0,4.8611H27.3849a2.4434,2.4434,0,0,0,0,4.8867H46.0287a2.4305,2.4305,0,1,1,0,4.861H33.0127a2.4433,2.4433,0,1,0,0,4.8865H49.2753a2.4305,2.4305,0,1,1,0,4.861H38.64a2.4434,2.4434,0,0,0,0,4.8867H52.8483a2.4307,2.4307,0,0,1,0,4.8613h-8.297a2.6067,2.6067,0,0,0,0,5.2133H90.55L114.3021,45H21.4066A2.4293,2.4293,0,0,0,23.7545,46.8216ZM57.6091,71.34h-.0024a2.4307,2.4307,0,1,1,0-4.8613h.0024a2.4307,2.4307,0,1,1,0,4.8613ZM63.9385,61.43h-3.9a2.4305,2.4305,0,1,1,0-4.861h3.9a2.4305,2.4305,0,1,1,0,4.861ZM56.6529,46.8216H69.518a2.4306,2.4306,0,1,1,0,4.8611H56.6529a2.4306,2.4306,0,1,1,0-4.8611ZM53.496,56.5459a2.4305,2.4305,0,1,1,0,4.861h-.927a2.4305,2.4305,0,0,1,0-4.861ZM39.18,46.8216H49.2753a2.4306,2.4306,0,0,1,0,4.8611H39.18a2.4306,2.4306,0,1,1,0-4.8611Z"/><path class="cls-4" d="M44.5328,3.8606a2.5743,2.5743,0,1,0,0,5.1486H53.11a2.4306,2.4306,0,0,1,0,4.8611H38.3376a1.8539,1.8539,0,0,0-1.6056.927v0a1.854,1.854,0,0,0,1.6056,2.7811h9.4079a2.4306,2.4306,0,0,1,0,4.8612H33.6891a2.3726,2.3726,0,0,0-2.0545,1.186l-.0819.1422a2.3723,2.3723,0,0,0,2.0543,3.5583,2.4305,2.4305,0,1,1,0,4.861H25.4549a2.4433,2.4433,0,0,0,0,4.8865h.4482a2.4307,2.4307,0,0,1,0,4.8613H23.7545a2.4433,2.4433,0,0,0-2.3139,1.6588A2.4,2.4,0,0,0,21.4066,45h92.8955L90.55,3.8606Zm9.1143,13.7181h3.7848a2.4306,2.4306,0,1,1,0,4.8612H53.6471a2.4306,2.4306,0,0,1,0-4.8612ZM41.0294,27.3264H62.8008a2.43,2.43,0,1,1,0,4.861H41.0294a2.4305,2.4305,0,1,1,0-4.861ZM39.8919,41.9352H32.607a2.4307,2.4307,0,0,1,0-4.8613h7.2849a2.4307,2.4307,0,1,1,0,4.8613Zm28.3091,0H47.1334a2.4307,2.4307,0,1,1,0-4.8613H68.201a2.4307,2.4307,0,1,1,0,4.8613Z"/></svg>