<svg id="Layer_1" data-name="Layer 1" xmlns="http://www.w3.org/2000/svg" xmlns:xlink="http://www.w3.org/1999/xlink" viewBox="0 0 301 178"><defs><style>.cls-1{fill:#4c7e8e;}.cls-2{fill:#b6cbd1;}.cls-3{fill:#a6bfc7;opacity:0.5;}.cls-4{fill:#4a7d8f;}.cls-5{fill:url(#linear-gradient);}</style><linearGradient id="linear-gradient" x1="115.5461" y1="34.4302" x2="208.5304" y2="34.4302" gradientUnits="userSpaceOnUse"><stop offset="0" stop-color="#4c7e8e" stop-opacity="0.3"/><stop offset="0.8543" stop-color="#4c7e8e"/></linearGradient></defs><title>CD2H_logo</title><path class="cls-1" d="M21.7644,114.77a.4514.4514,0,0,1,.4561-.4322h.6l10.4169,12.0493h.024v-11.353a.4555.4555,0,0,1,.456-.456h1.5362a.4718.4718,0,0,1,.456.456v16.1533a.4514.4514,0,0,1-.456.4322H34.63l-10.417-12.3853h-.0239v11.689a.4555.4555,0,0,1-.456.456H22.2205a.4722.4722,0,0,1-.4561-.456Z"/><path class="cls-1" d="M41.948,130.7548l7.3687-16.1533a.5618.5618,0,0,1,.4082-.2642h.24a.5613.5613,0,0,1,.4077.2642l7.3208,16.1533a.4237.4237,0,0,1-.4082.624H55.7732a.56.56,0,0,1-.5518-.36L53.7332,127.73H45.8845c-.48,1.104-.9839,2.1841-1.4638,3.2886a.604.604,0,0,1-.5523.36H42.3562A.424.424,0,0,1,41.948,130.7548Zm10.873-5.0884L49.8689,119.09h-.12l-2.9282,6.5766Z"/><path class="cls-1" d="M65.3489,116.8334H61.4358a.4558.4558,0,0,1-.4561-.456v-1.3438a.4558.4558,0,0,1,.4561-.456H71.7571a.4558.4558,0,0,1,.456.456v1.3438a.4558.4558,0,0,1-.456.456H67.845v14.0894a.4718.4718,0,0,1-.4561.456h-1.584a.4718.4718,0,0,1-.456-.456Z"/><path class="cls-1" d="M78.6443,115.0336a.4718.4718,0,0,1,.456-.456h1.584a.4718.4718,0,0,1,.4561.456v15.8892a.4718.4718,0,0,1-.4561.456H79.1a.4718.4718,0,0,1-.456-.456Z"/><path class="cls-1" d="M97.0291,114.3373a8.6409,8.6409,0,1,1-8.6163,8.6646A8.6249,8.6249,0,0,1,97.0291,114.3373Zm0,14.8814a6.2405,6.2405,0,1,0-6.2168-6.2168A6.2379,6.2379,0,0,0,97.0291,129.2187Z"/><path class="cls-1" d="M112.94,114.77a.451.451,0,0,1,.456-.4322h.6006l10.416,12.0493h.0245v-11.353a.4558.4558,0,0,1,.456-.456h1.5361a.4718.4718,0,0,1,.4561.456v16.1533a.4514.4514,0,0,1-.4561.4322h-.624l-10.417-12.3853h-.0244v11.689a.4552.4552,0,0,1-.456.456h-1.5118a.4718.4718,0,0,1-.456-.456Z"/><path class="cls-1" d="M133.1238,130.7548l7.3681-16.1533a.5622.5622,0,0,1,.4082-.2642h.24a.5622.5622,0,0,1,.4082.2642l7.32,16.1533a.4239.4239,0,0,1-.4082.624H146.949a.5609.5609,0,0,1-.5528-.36l-1.4873-3.2886H137.06c-.4805,1.104-.9844,2.1841-1.4648,3.2886a.602.602,0,0,1-.5518.36H133.532A.4236.4236,0,0,1,133.1238,130.7548Zm10.873-5.0884-2.9521-6.5766h-.12l-2.9288,6.5766Z"/><path class="cls-1" d="M155.1072,115.0336a.4558.4558,0,0,1,.456-.456h1.584a.4718.4718,0,0,1,.4561.456v14.1128h6.5049a.4562.4562,0,0,1,.456.4561v1.32a.4558.4558,0,0,1-.456.456h-8.545a.4558.4558,0,0,1-.456-.456Z"/><path class="cls-1" d="M187.4822,114.3373a8.3294,8.3294,0,0,1,5.8086,2.2324.4465.4465,0,0,1,.0244.6719l-1.0567,1.08c-.1679.2158-.3837.2158-.6,0a6.5047,6.5047,0,0,0-4.1523-1.6079,6.2316,6.2316,0,0,0,.0234,12.457,6.4284,6.4284,0,0,0,4.1289-1.5844.4391.4391,0,0,1,.5762-.024l1.1035,1.08a.4566.4566,0,0,1-.0234.648,8.2385,8.2385,0,0,1-5.833,2.3286,8.6409,8.6409,0,1,1,0-17.2818Z"/><path class="cls-1" d="M200.5867,115.0336a.4558.4558,0,0,1,.456-.456h9.6006a.4552.4552,0,0,1,.4561.456v1.3438a.4552.4552,0,0,1-.4561.456h-7.584V121.73h6.4082a.4722.4722,0,0,1,.4561.4561V123.53a.4555.4555,0,0,1-.4561.4561h-6.4082v5.16h7.584a.4555.4555,0,0,1,.4561.4561v1.32a.4552.4552,0,0,1-.4561.456h-9.6006a.4558.4558,0,0,1-.456-.456Z"/><path class="cls-1" d="M218.5623,114.77a.451.451,0,0,1,.456-.4322h.6006l10.416,12.0493h.0244v-11.353a.4558.4558,0,0,1,.4561-.456h1.5361a.4719.4719,0,0,1,.4561.456v16.1533a.4515.4515,0,0,1-.4561.4322h-.624l-10.417-12.3853h-.0244v11.689a.4552.4552,0,0,1-.4561.456h-1.5117a.4718.4718,0,0,1-.456-.456Z"/><path class="cls-1" d="M243.3064,116.8334h-3.9131a.4558.4558,0,0,1-.456-.456v-1.3438a.4558.4558,0,0,1,.456-.456h10.3213a.4558.4558,0,0,1,.4561.456v1.3438a.4558.4558,0,0,1-.4561.456h-3.9121v14.0894a.4718.4718,0,0,1-.4561.456h-1.5839a.4718.4718,0,0,1-.4561-.456Z"/><path class="cls-1" d="M256.6013,115.0336a.4558.4558,0,0,1,.4561-.456h9.6006a.4552.4552,0,0,1,.456.456v1.3438a.4552.4552,0,0,1-.456.456h-7.584V121.73h6.4082a.4722.4722,0,0,1,.456.4561V123.53a.4555.4555,0,0,1-.456.4561H259.074v5.16h7.584a.4555.4555,0,0,1,.456.4561v1.32a.4552.4552,0,0,1-.456.456h-9.6006a.4558.4558,0,0,1-.4561-.456Z"/><path class="cls-1" d="M274.5769,115.0336a.4558.4558,0,0,1,.4561-.456h6.5283a5.1779,5.1779,0,0,1,5.2324,5.1362,5.3281,5.3281,0,0,1-3.5518,4.8726l3.2881,6.0961a.4542.4542,0,0,1-.4082.6963H284.25a.4412.4412,0,0,1-.3838-.2158l-3.1924-6.3608H277.05v6.1206a.4725.4725,0,0,1-.4561.456h-1.56a.4558.4558,0,0,1-.4561-.456Zm6.793,7.7046a2.9818,2.9818,0,0,0,2.9277-2.9766,2.9415,2.9415,0,0,0-2.9277-2.8559h-4.2725v5.8325Z"/><path class="cls-1" d="M21.62,143.8339a.4555.4555,0,0,1,.456-.456h9.7691a.4555.4555,0,0,1,.456.456v1.9678a.4555.4555,0,0,1-.456.456H24.741V150.77h5.9282a.4719.4719,0,0,1,.456.4561v1.9682a.4717.4717,0,0,1-.456.4556H24.741v6.0728a.4722.4722,0,0,1-.4561.456H22.0764a.4555.4555,0,0,1-.456-.456Z"/><path class="cls-1" d="M44.0852,143.1376a8.6409,8.6409,0,1,1-8.6172,8.6646A8.6251,8.6251,0,0,1,44.0852,143.1376Zm0,14.1612a5.5206,5.5206,0,1,0-5.4966-5.4966A5.5315,5.5315,0,0,0,44.0852,157.2988Z"/><path class="cls-1" d="M57.38,143.8339a.4555.4555,0,0,1,.4561-.456H64.7a5.1991,5.1991,0,0,1,5.2325,5.16,5.2963,5.2963,0,0,1-3.5528,4.8486l3.2891,6.0962a.4543.4543,0,0,1-.4082.6963h-2.52a.4114.4114,0,0,1-.3838-.2158l-3.1924-6.3608H60.5v6.1206a.4721.4721,0,0,1-.456.456H57.8357a.4555.4555,0,0,1-.4561-.456Zm7.0572,7.2a2.4447,2.4447,0,0,0,2.3759-2.4477,2.3882,2.3882,0,0,0-2.3759-2.3287H60.5242v4.7764Z"/><path class="cls-1" d="M81.6921,143.8339a.4506.4506,0,0,1,.4317-.456h5.6885a8.4006,8.4006,0,1,1,0,16.8012H82.1238a.4506.4506,0,0,1-.4317-.456Zm5.8321,13.417a5.485,5.485,0,0,0,0-10.9687H84.7878v10.9687Z"/><path class="cls-1" d="M98.5876,159.5551l7.4649-16.1533a.431.431,0,0,1,.4082-.2642H106.7a.4084.4084,0,0,1,.4082.2642l7.3925,16.1533a.4236.4236,0,0,1-.4082.624h-2.0879a.6907.6907,0,0,1-.6963-.48l-1.1757-2.5922h-7.1768l-1.1758,2.5922a.7239.7239,0,0,1-.6963.48H98.9958A.4239.4239,0,0,1,98.5876,159.5551Zm10.3692-5.1123-2.4-5.2808h-.0723l-2.3515,5.2808Z"/><path class="cls-1" d="M119.5652,146.2577h-3.6719a.4552.4552,0,0,1-.456-.456v-1.9678a.4552.4552,0,0,1,.456-.456h10.4883a.4558.4558,0,0,1,.456.456v1.9678a.4558.4558,0,0,1-.456.456H122.71v13.4654a.4725.4725,0,0,1-.456.456h-2.2325a.4718.4718,0,0,1-.456-.456Z"/><path class="cls-1" d="M127.7478,159.5551l7.4648-16.1533a.4311.4311,0,0,1,.4082-.2642h.2393a.4084.4084,0,0,1,.4082.2642l7.3926,16.1533a.4236.4236,0,0,1-.4082.624h-2.0879a.6906.6906,0,0,1-.6963-.48l-1.1758-2.5922H132.116l-1.1758,2.5922a.7239.7239,0,0,1-.6963.48H128.156A.4239.4239,0,0,1,127.7478,159.5551Zm10.3691-5.1123-2.4-5.2808h-.0723l-2.3516,5.2808Z"/><path class="cls-1" d="M156.4285,146.2577h-3.6719a.4552.4552,0,0,1-.4561-.456v-1.9678a.4552.4552,0,0,1,.4561-.456h10.4883a.4558.4558,0,0,1,.456.456v1.9678a.4558.4558,0,0,1-.456.456H159.573v13.4654a.4725.4725,0,0,1-.4561.456h-2.2324a.4718.4718,0,0,1-.456-.456Z"/><path class="cls-1" d="M174.9558,143.1376a8.6409,8.6409,0,1,1-8.6162,8.6646A8.6248,8.6248,0,0,1,174.9558,143.1376Zm0,14.1612a5.5206,5.5206,0,1,0-5.4961-5.4966A5.5316,5.5316,0,0,0,174.9558,157.2988Z"/><path class="cls-1" d="M195.0662,143.8339a.4718.4718,0,0,1,.456-.456h2.2315a.4552.4552,0,0,1,.456.456v6.36h7.8252v-6.36a.4552.4552,0,0,1,.4561-.456h2.208a.4718.4718,0,0,1,.456.456v15.8892a.4718.4718,0,0,1-.456.456h-2.208a.4552.4552,0,0,1-.4561-.456v-6.6245H198.21v6.6245a.4552.4552,0,0,1-.456.456h-2.2315a.4718.4718,0,0,1-.456-.456Z"/><path class="cls-1" d="M215.0349,143.8339a.4552.4552,0,0,1,.4561-.456H225.26a.4558.4558,0,0,1,.4561.456v1.9678a.4558.4558,0,0,1-.4561.456H218.155v3.9366h5.9287a.4725.4725,0,0,1,.4561.456v1.9922a.4562.4562,0,0,1-.4561.4561H218.155v4.2H225.26a.4562.4562,0,0,1,.4561.456v1.9683a.4558.4558,0,0,1-.4561.456H215.491a.4552.4552,0,0,1-.4561-.456Z"/><path class="cls-1" d="M228.4744,159.5551l7.4648-16.1533a.431.431,0,0,1,.4082-.2642h.2393a.4084.4084,0,0,1,.4082.2642l7.3926,16.1533a.4236.4236,0,0,1-.4083.624h-2.0878a.6906.6906,0,0,1-.6963-.48l-1.1758-2.5922h-7.1768l-1.1758,2.5922a.7238.7238,0,0,1-.6962.48h-2.0879A.4238.4238,0,0,1,228.4744,159.5551Zm10.3691-5.1123-2.4-5.2808h-.0723l-2.3515,5.2808Z"/><path class="cls-1" d="M248.0828,143.8339a.4552.4552,0,0,1,.456-.456h2.208a.4718.4718,0,0,1,.4561.456v13.4649h6.12a.4556.4556,0,0,1,.4561.456v1.9683a.4553.4553,0,0,1-.4561.456h-8.7842a.4552.4552,0,0,1-.456-.456Z"/><path class="cls-1" d="M263.0115,146.2577h-3.6729a.455.455,0,0,1-.4551-.456v-1.9678a.455.455,0,0,1,.4551-.456h10.4893a.4552.4552,0,0,1,.456.456v1.9678a.4552.4552,0,0,1-.456.456H266.156v13.4654a.4725.4725,0,0,1-.456.456h-2.2325a.4718.4718,0,0,1-.456-.456Z"/><path class="cls-1" d="M274.2908,143.8339a.4718.4718,0,0,1,.456-.456h2.2315a.4552.4552,0,0,1,.456.456v6.36H285.26v-6.36a.4552.4552,0,0,1,.4561-.456h2.208a.4718.4718,0,0,1,.456.456v15.8892a.4718.4718,0,0,1-.456.456h-2.208a.4552.4552,0,0,1-.4561-.456v-6.6245h-7.8252v6.6245a.4552.4552,0,0,1-.456.456h-2.2315a.4718.4718,0,0,1-.456-.456Z"/><path class="cls-2" d="M123.6481,34.883a2.4433,2.4433,0,1,1-2.4434-2.4431A2.4433,2.4433,0,0,1,123.6481,34.883Z"/><path class="cls-2" d="M116.3579,34.883a1.7393,1.7393,0,1,1-1.7393-1.7393A1.7393,1.7393,0,0,1,116.3579,34.883Z"/><path class="cls-3" d="M133.1958,16.3037a2.4434,2.4434,0,1,1-2.4433-2.4431A2.4434,2.4434,0,0,1,133.1958,16.3037Z"/><path class="cls-3" d="M124.6837,16.3037a1.74,1.74,0,1,1-1.7394-1.7394A1.74,1.74,0,0,1,124.6837,16.3037Z"/><path class="cls-1" d="M127.2,83.783A2.4434,2.4434,0,1,1,124.757,81.34,2.4432,2.4432,0,0,1,127.2,83.783Z"/><path class="cls-1" d="M135.0171,93.6961a2.4432,2.4432,0,1,1-2.4431-2.4434A2.4432,2.4432,0,0,1,135.0171,93.6961Z"/><path class="cls-1" d="M118.6882,83.783a1.7395,1.7395,0,1,1-1.7393-1.7393A1.7394,1.7394,0,0,1,118.6882,83.783Z"/><circle class="cls-1" cx="110.7518" cy="83.783" r="1.1168"/><path class="cls-2" d="M111.4406,54.3785a2.4434,2.4434,0,1,1-2.4434-2.4433A2.4432,2.4432,0,0,1,111.4406,54.3785Z"/><path class="cls-2" d="M100.6715,54.3785a1.7394,1.7394,0,1,1-1.7393-1.7395A1.7394,1.7394,0,0,1,100.6715,54.3785Z"/><circle class="cls-1" cx="115.4832" cy="64.4175" r="1.7393"/><path class="cls-1" d="M128.236,93.6961a1.74,1.74,0,1,1-1.74-1.7394A1.7393,1.7393,0,0,1,128.236,93.6961Z"/><path class="cls-4" d="M117.9828,56.8216h7.7362a2.4306,2.4306,0,0,1,0,4.8611h-4.1057a2.4434,2.4434,0,1,0,0,4.8867H140.257a2.4305,2.4305,0,0,1,0,4.861H127.241a2.4433,2.4433,0,1,0,0,4.8865h16.2626a2.4305,2.4305,0,1,1,0,4.861H132.8685a2.4434,2.4434,0,0,0,0,4.8867h14.2081a2.4307,2.4307,0,0,1,0,4.8613H138.78a2.6067,2.6067,0,0,0,0,5.2133h45.999L208.53,55H115.6349A2.4293,2.4293,0,0,0,117.9828,56.8216ZM151.8374,81.34h-.0023a2.4307,2.4307,0,1,1,0-4.8613h.0023a2.4307,2.4307,0,1,1,0,4.8613Zm6.3294-9.9093h-3.9a2.4305,2.4305,0,1,1,0-4.861h3.9a2.4305,2.4305,0,1,1,0,4.861Zm-7.2856-14.6088h12.8652a2.4306,2.4306,0,1,1,0,4.8611H150.8812a2.4306,2.4306,0,0,1,0-4.8611Zm-3.1569,9.7243a2.4305,2.4305,0,1,1,0,4.861h-.927a2.43,2.43,0,0,1,0-4.861Zm-14.3159-9.7243h10.0952a2.4306,2.4306,0,1,1,0,4.8611H133.4084a2.4306,2.4306,0,1,1,0-4.8611Z"/><path class="cls-5" d="M138.7611,13.8606a2.5743,2.5743,0,1,0,0,5.1486h8.577a2.4306,2.4306,0,1,1,0,4.8611H132.5659a1.8539,1.8539,0,0,0-1.6056.927v0a1.854,1.854,0,0,0,1.6056,2.7811h9.4079a2.4306,2.4306,0,0,1,0,4.8612H127.9175a2.3727,2.3727,0,0,0-2.0546,1.186l-.0819.1422a2.3723,2.3723,0,0,0,2.0543,3.5583,2.4305,2.4305,0,1,1,0,4.861h-8.1521a2.4433,2.4433,0,0,0,0,4.8865h.4482a2.4307,2.4307,0,0,1,0,4.8613h-2.1486a2.4433,2.4433,0,0,0-2.3139,1.6588A2.4006,2.4006,0,0,0,115.6349,55H208.53L184.7786,13.8606Zm9.1143,13.7181H151.66a2.4306,2.4306,0,1,1,0,4.8612h-3.7848a2.4306,2.4306,0,0,1,0-4.8612Zm-12.6177,9.7477h21.7714a2.43,2.43,0,0,1,0,4.861H135.2577a2.4305,2.4305,0,1,1,0-4.861ZM134.12,51.9352h-7.2849a2.4307,2.4307,0,0,1,0-4.8613H134.12a2.4307,2.4307,0,1,1,0,4.8613Zm28.3091,0H141.3617a2.4307,2.4307,0,1,1,0-4.8613h21.0676a2.4307,2.4307,0,1,1,0,4.8613Z"/></svg>