<svg id="Layer_1" data-name="Layer 1" xmlns="http://www.w3.org/2000/svg" xmlns:xlink="http://www.w3.org/1999/xlink" viewBox="0 0 400 89"><defs><style>.cls-1{fill:#4c7e8e;}.cls-2{fill:#b6cbd1;}.cls-3{fill:#a6bfc7;opacity:0.5;}.cls-4{fill:url(#linear-gradient);}</style><linearGradient id="linear-gradient" x1="18.5461" y1="24.4302" x2="111.5304" y2="24.4302" gradientUnits="userSpaceOnUse"><stop offset="0" stop-color="#4c7e8e" stop-opacity="0.3"/><stop offset="0.8543" stop-color="#4c7e8e"/></linearGradient></defs><title>CD2H_logo</title><path class="cls-1" d="M129.1919,23.5a.4518.4518,0,0,1,.4561-.4326h.6l10.4175,12.05h.0234V23.764a.4559.4559,0,0,1,.4561-.4561h1.5361a.4719.4719,0,0,1,.456.4561V39.9173a.4514.4514,0,0,1-.456.4326h-.624L131.64,27.9642h-.024V39.6537a.4554.4554,0,0,1-.456.456H129.648a.4722.4722,0,0,1-.4561-.456Z"/><path class="cls-1" d="M149.3755,39.4857l7.3692-16.1533a.5613.5613,0,0,1,.4082-.2647h.24a.56.56,0,0,1,.4072.2647l7.3213,16.1533a.4239.4239,0,0,1-.4082.624h-1.5127a.5606.5606,0,0,1-.5517-.36l-1.4883-3.2881h-7.8486c-.4795,1.1035-.9834,2.1836-1.4639,3.2881a.6035.6035,0,0,1-.5518.36h-1.5127A.4243.4243,0,0,1,149.3755,39.4857Zm10.8731-5.0889-2.9522-6.5762h-.12l-2.9277,6.5762Z"/><path class="cls-1" d="M172.7769,25.5638h-3.9131a.4558.4558,0,0,1-.456-.456V23.764a.4558.4558,0,0,1,.456-.4561h10.3213a.4559.4559,0,0,1,.4561.4561v1.3438a.4558.4558,0,0,1-.4561.456H175.273v14.09a.4718.4718,0,0,1-.4561.456h-1.584a.4718.4718,0,0,1-.456-.456Z"/><path class="cls-1" d="M186.0718,23.764a.4719.4719,0,0,1,.4561-.4561h1.584a.4719.4719,0,0,1,.456.4561v15.89a.4718.4718,0,0,1-.456.456h-1.584a.4718.4718,0,0,1-.4561-.456Z"/><path class="cls-1" d="M204.4566,23.0677a8.6411,8.6411,0,1,1-8.6162,8.6651A8.6249,8.6249,0,0,1,204.4566,23.0677Zm0,14.8818a6.2407,6.2407,0,1,0-6.2168-6.2167A6.2378,6.2378,0,0,0,204.4566,37.95Z"/><path class="cls-1" d="M220.3677,23.5a.4515.4515,0,0,1,.4561-.4326h.6006l10.416,12.05h.0244V23.764a.4559.4559,0,0,1,.456-.4561h1.5362a.4719.4719,0,0,1,.456.4561V39.9173a.4514.4514,0,0,1-.456.4326h-.6241L222.816,27.9642h-.0245V39.6537a.4552.4552,0,0,1-.456.456h-1.5117a.4718.4718,0,0,1-.4561-.456Z"/><path class="cls-1" d="M240.5513,39.4857,247.92,23.3324a.5613.5613,0,0,1,.4082-.2647h.24a.5614.5614,0,0,1,.4082.2647l7.32,16.1533a.4239.4239,0,0,1-.4082.624h-1.5117a.561.561,0,0,1-.5527-.36l-1.4873-3.2881h-7.8487c-.48,1.1035-.9843,2.1836-1.4648,3.2881a.6024.6024,0,0,1-.5518.36H240.96A.4237.4237,0,0,1,240.5513,39.4857Zm10.8731-5.0889-2.9522-6.5762h-.12l-2.9287,6.5762Z"/><path class="cls-1" d="M262.5347,23.764a.4559.4559,0,0,1,.4561-.4561h1.5839a.4719.4719,0,0,1,.4561.4561V37.8773h6.5049a.4558.4558,0,0,1,.456.456v1.32a.4558.4558,0,0,1-.456.456h-8.5449a.4558.4558,0,0,1-.4561-.456Z"/><path class="cls-1" d="M294.91,23.0677A8.3314,8.3314,0,0,1,300.7183,25.3a.4465.4465,0,0,1,.0244.6719l-1.0566,1.08c-.168.2158-.3838.2158-.6,0a6.5074,6.5074,0,0,0-4.1524-1.6074,6.2316,6.2316,0,0,0,.0235,12.457,6.426,6.426,0,0,0,4.1289-1.585.439.439,0,0,1,.5761-.0234l1.1036,1.08a.456.456,0,0,1-.0235.6474A8.2364,8.2364,0,0,1,294.91,40.35a8.6411,8.6411,0,1,1,0-17.2822Z"/><path class="cls-1" d="M308.0142,23.764a.4559.4559,0,0,1,.4561-.4561h9.6005a.4553.4553,0,0,1,.4561.4561v1.3438a.4552.4552,0,0,1-.4561.456h-7.5839V30.46h6.4082a.4725.4725,0,0,1,.456.456v1.3448a.4558.4558,0,0,1-.456.456h-6.4082v5.16h7.5839a.4552.4552,0,0,1,.4561.456v1.32a.4552.4552,0,0,1-.4561.456H308.47a.4558.4558,0,0,1-.4561-.456Z"/><path class="cls-1" d="M325.99,23.5a.4515.4515,0,0,1,.456-.4326h.6006l10.416,12.05h.0245V23.764a.4558.4558,0,0,1,.456-.4561h1.5361a.4719.4719,0,0,1,.4561.4561V39.9173a.4514.4514,0,0,1-.4561.4326h-.624L328.438,27.9642h-.0244V39.6537a.4552.4552,0,0,1-.456.456h-1.5118a.4718.4718,0,0,1-.456-.456Z"/><path class="cls-1" d="M350.7339,25.5638h-3.9131a.4558.4558,0,0,1-.456-.456V23.764a.4559.4559,0,0,1,.456-.4561h10.3213a.4559.4559,0,0,1,.4561.4561v1.3438a.4558.4558,0,0,1-.4561.456H353.23v14.09a.4718.4718,0,0,1-.456.456H351.19a.4718.4718,0,0,1-.4561-.456Z"/><path class="cls-1" d="M364.0288,23.764a.4559.4559,0,0,1,.4561-.4561h9.6006a.4553.4553,0,0,1,.456.4561v1.3438a.4552.4552,0,0,1-.456.456h-7.584V30.46H372.91a.4726.4726,0,0,1,.4561.456v1.3448a.4559.4559,0,0,1-.4561.456h-6.4082v5.16h7.584a.4552.4552,0,0,1,.456.456v1.32a.4552.4552,0,0,1-.456.456h-9.6006a.4558.4558,0,0,1-.4561-.456Z"/><path class="cls-1" d="M382.0044,23.764a.4559.4559,0,0,1,.4561-.4561h6.5283a5.1784,5.1784,0,0,1,5.2324,5.1368,5.3266,5.3266,0,0,1-3.5517,4.872l3.2881,6.0967a.4543.4543,0,0,1-.4082.6963h-1.8721a.4412.4412,0,0,1-.3838-.2158l-3.1924-6.3613h-3.624v6.1211a.4725.4725,0,0,1-.4561.456h-1.56a.4558.4558,0,0,1-.4561-.456Zm6.793,7.7051a2.9817,2.9817,0,0,0,2.9277-2.9766,2.9415,2.9415,0,0,0-2.9277-2.8564h-4.2725v5.833Z"/><path class="cls-1" d="M129.0479,52.5648a.4555.4555,0,0,1,.456-.4561h9.7691a.4555.4555,0,0,1,.456.4561v1.9678a.4555.4555,0,0,1-.456.456h-7.1045v4.5127h5.9282a.4718.4718,0,0,1,.4561.4561v1.9677a.4718.4718,0,0,1-.4561.4561h-5.9282v6.0723a.4722.4722,0,0,1-.4561.456h-2.2085a.4555.4555,0,0,1-.456-.456Z"/><path class="cls-1" d="M151.5132,51.8685a8.6406,8.6406,0,1,1-8.6172,8.6641A8.6253,8.6253,0,0,1,151.5132,51.8685Zm0,14.1611a5.5206,5.5206,0,1,0-5.497-5.497A5.5318,5.5318,0,0,0,151.5132,66.03Z"/><path class="cls-1" d="M164.8072,52.5648a.4558.4558,0,0,1,.456-.4561h6.8653a5.1988,5.1988,0,0,1,5.2324,5.16,5.2973,5.2973,0,0,1-3.5528,4.8486l3.2891,6.0957a.4542.4542,0,0,1-.4082.6963h-2.52a.4116.4116,0,0,1-.3838-.2158l-3.1924-6.36h-2.664v6.12a.4725.4725,0,0,1-.4561.456h-2.209a.4558.4558,0,0,1-.456-.456Zm7.0576,7.2a2.4452,2.4452,0,0,0,2.376-2.4483,2.3878,2.3878,0,0,0-2.376-2.3281h-3.9131V59.765Z"/><path class="cls-1" d="M189.12,52.5648a.4506.4506,0,0,1,.4316-.4561H195.24a8.4,8.4,0,1,1,0,16.8008h-5.6885a.4506.4506,0,0,1-.4316-.456Zm5.832,13.417a5.4851,5.4851,0,0,0,0-10.9688h-2.7363V65.9818Z"/><path class="cls-1" d="M206.0152,68.2855,213.48,52.1322a.4314.4314,0,0,1,.4082-.2637h.2393a.4087.4087,0,0,1,.4082.2637l7.3926,16.1533a.4235.4235,0,0,1-.4082.624h-2.0879a.69.69,0,0,1-.6963-.4795L217.56,65.8372h-7.1768L209.2076,68.43a.7241.7241,0,0,1-.6963.4795h-2.0879A.4237.4237,0,0,1,206.0152,68.2855Zm10.3691-5.1123-2.4-5.28h-.0722l-2.3516,5.28Z"/><path class="cls-1" d="M226.9927,54.9886h-3.6719a.4552.4552,0,0,1-.456-.456V52.5648a.4552.4552,0,0,1,.456-.4561h10.4883a.4559.4559,0,0,1,.4561.4561v1.9678a.4558.4558,0,0,1-.4561.456h-3.6719V68.4535a.4725.4725,0,0,1-.456.456h-2.2324a.4718.4718,0,0,1-.4561-.456Z"/><path class="cls-1" d="M235.1753,68.2855,242.64,52.1322a.4313.4313,0,0,1,.4082-.2637h.2392a.4085.4085,0,0,1,.4082.2637l7.3926,16.1533a.4235.4235,0,0,1-.4082.624h-2.0879a.69.69,0,0,1-.6963-.4795L246.72,65.8372h-7.1768L238.3677,68.43a.7241.7241,0,0,1-.6963.4795h-2.0879A.4238.4238,0,0,1,235.1753,68.2855Zm10.3692-5.1123-2.4-5.28h-.0723l-2.3515,5.28Z"/><path class="cls-1" d="M263.856,54.9886h-3.6719a.4552.4552,0,0,1-.456-.456V52.5648a.4552.4552,0,0,1,.456-.4561h10.4883a.4559.4559,0,0,1,.4561.4561v1.9678a.4558.4558,0,0,1-.4561.456h-3.6719V68.4535a.4725.4725,0,0,1-.456.456h-2.2324a.4718.4718,0,0,1-.4561-.456Z"/><path class="cls-1" d="M282.3833,51.8685a8.6406,8.6406,0,1,1-8.6162,8.6641A8.6248,8.6248,0,0,1,282.3833,51.8685Zm0,14.1611a5.5206,5.5206,0,1,0-5.4961-5.497A5.5319,5.5319,0,0,0,282.3833,66.03Z"/><path class="cls-1" d="M302.4937,52.5648a.4718.4718,0,0,1,.456-.4561h2.2315a.4552.4552,0,0,1,.456.4561v6.36h7.8252v-6.36a.4552.4552,0,0,1,.4561-.4561h2.208a.4719.4719,0,0,1,.4561.4561V68.4535a.4719.4719,0,0,1-.4561.456h-2.208a.4552.4552,0,0,1-.4561-.456V61.8294h-7.8252v6.6241a.4552.4552,0,0,1-.456.456H302.95a.4718.4718,0,0,1-.456-.456Z"/><path class="cls-1" d="M322.4624,52.5648a.4552.4552,0,0,1,.4561-.4561h9.7686a.4558.4558,0,0,1,.456.4561v1.9678a.4558.4558,0,0,1-.456.456h-7.1045v3.9365h5.9287a.4726.4726,0,0,1,.456.4561v1.9922a.4565.4565,0,0,1-.456.456h-5.9287v4.2h7.1045a.4558.4558,0,0,1,.456.4561v1.9678a.4558.4558,0,0,1-.456.456h-9.7686a.4552.4552,0,0,1-.4561-.456Z"/><path class="cls-1" d="M335.9019,68.2855l7.4648-16.1533a.4314.4314,0,0,1,.4082-.2637h.2393a.4087.4087,0,0,1,.4082.2637l7.3926,16.1533a.4235.4235,0,0,1-.4082.624h-2.0879a.69.69,0,0,1-.6963-.4795l-1.1758-2.5928H340.27L339.0943,68.43a.7241.7241,0,0,1-.6963.4795H336.31A.4237.4237,0,0,1,335.9019,68.2855Zm10.3691-5.1123-2.4-5.28h-.0722l-2.3516,5.28Z"/><path class="cls-1" d="M355.51,52.5648a.4552.4552,0,0,1,.456-.4561h2.2081a.4718.4718,0,0,1,.456.4561V66.03h6.12a.4552.4552,0,0,1,.4561.4561v1.9678a.4552.4552,0,0,1-.4561.456h-8.7842a.4552.4552,0,0,1-.456-.456Z"/><path class="cls-1" d="M370.439,54.9886h-3.6728a.455.455,0,0,1-.4551-.456V52.5648a.455.455,0,0,1,.4551-.4561h10.4892a.4552.4552,0,0,1,.4561.4561v1.9678a.4552.4552,0,0,1-.4561.456h-3.6719V68.4535a.4725.4725,0,0,1-.456.456h-2.2324a.4718.4718,0,0,1-.4561-.456Z"/><path class="cls-1" d="M381.7183,52.5648a.4718.4718,0,0,1,.4561-.4561h2.2314a.4553.4553,0,0,1,.4561.4561v6.36h7.8252v-6.36a.4552.4552,0,0,1,.456-.4561h2.208a.4719.4719,0,0,1,.4561.4561V68.4535a.4719.4719,0,0,1-.4561.456h-2.208a.4552.4552,0,0,1-.456-.456V61.8294h-7.8252v6.6241a.4553.4553,0,0,1-.4561.456h-2.2314a.4718.4718,0,0,1-.4561-.456Z"/><path class="cls-2" d="M26.6481,24.883A2.4433,2.4433,0,1,1,24.2047,22.44,2.4433,2.4433,0,0,1,26.6481,24.883Z"/><path class="cls-2" d="M19.3579,24.883a1.7393,1.7393,0,1,1-1.7393-1.7393A1.7393,1.7393,0,0,1,19.3579,24.883Z"/><path class="cls-3" d="M36.1958,6.3037a2.4434,2.4434,0,1,1-2.4433-2.4431A2.4434,2.4434,0,0,1,36.1958,6.3037Z"/><path class="cls-3" d="M27.6837,6.3037a1.74,1.74,0,1,1-1.7394-1.7394A1.74,1.74,0,0,1,27.6837,6.3037Z"/><path class="cls-1" d="M30.2,73.783A2.4434,2.4434,0,1,1,27.757,71.34,2.4432,2.4432,0,0,1,30.2,73.783Z"/><path class="cls-1" d="M38.0171,83.6961a2.4432,2.4432,0,1,1-2.4431-2.4434A2.4432,2.4432,0,0,1,38.0171,83.6961Z"/><path class="cls-1" d="M21.6882,73.783a1.7395,1.7395,0,1,1-1.7393-1.7393A1.7394,1.7394,0,0,1,21.6882,73.783Z"/><circle class="cls-1" cx="13.7518" cy="73.783" r="1.1168"/><path class="cls-2" d="M14.4406,44.3785a2.4434,2.4434,0,1,1-2.4434-2.4433A2.4432,2.4432,0,0,1,14.4406,44.3785Z"/><path class="cls-2" d="M3.6715,44.3785A1.7394,1.7394,0,1,1,1.9322,42.639,1.7394,1.7394,0,0,1,3.6715,44.3785Z"/><circle class="cls-1" cx="18.4832" cy="54.4175" r="1.7393"/><path class="cls-1" d="M31.236,83.6961a1.74,1.74,0,1,1-1.74-1.7394A1.7393,1.7393,0,0,1,31.236,83.6961Z"/><path class="cls-1" d="M20.9828,46.8216H28.719a2.4306,2.4306,0,0,1,0,4.8611H24.6133a2.4434,2.4434,0,1,0,0,4.8867H43.257a2.4305,2.4305,0,1,1,0,4.861H30.241a2.4433,2.4433,0,1,0,0,4.8865H46.5036a2.4305,2.4305,0,1,1,0,4.861H35.8685a2.4434,2.4434,0,0,0,0,4.8867H50.0766a2.4307,2.4307,0,0,1,0,4.8613H41.78a2.6067,2.6067,0,0,0,0,5.2133h45.999L111.53,45H18.6349A2.4293,2.4293,0,0,0,20.9828,46.8216ZM54.8374,71.34h-.0023a2.4307,2.4307,0,1,1,0-4.8613h.0023a2.4307,2.4307,0,1,1,0,4.8613ZM61.1668,61.43h-3.9a2.4305,2.4305,0,1,1,0-4.861h3.9a2.4305,2.4305,0,1,1,0,4.861ZM53.8812,46.8216H66.7464a2.4306,2.4306,0,1,1,0,4.8611H53.8812a2.4306,2.4306,0,0,1,0-4.8611Zm-3.1569,9.7243a2.4305,2.4305,0,1,1,0,4.861h-.927a2.43,2.43,0,1,1,0-4.861ZM36.4084,46.8216H46.5036a2.4306,2.4306,0,1,1,0,4.8611H36.4084a2.4306,2.4306,0,1,1,0-4.8611Z"/><path class="cls-4" d="M41.7611,3.8606a2.5743,2.5743,0,1,0,0,5.1486h8.577a2.4306,2.4306,0,1,1,0,4.8611H35.5659a1.8539,1.8539,0,0,0-1.6056.927v0a1.854,1.854,0,0,0,1.6056,2.7811h9.4079a2.4306,2.4306,0,0,1,0,4.8612H30.9175a2.3727,2.3727,0,0,0-2.0546,1.186l-.0819.1422a2.3723,2.3723,0,0,0,2.0543,3.5583,2.4305,2.4305,0,1,1,0,4.861H22.6832a2.4433,2.4433,0,0,0,0,4.8865h.4482a2.4307,2.4307,0,0,1,0,4.8613H20.9828a2.4433,2.4433,0,0,0-2.3139,1.6588A2.4006,2.4006,0,0,0,18.6349,45H111.53L87.7786,3.8606Zm9.1143,13.7181H54.66a2.4306,2.4306,0,1,1,0,4.8612H50.8754a2.4306,2.4306,0,0,1,0-4.8612ZM38.2577,27.3264H60.0291a2.4305,2.4305,0,0,1,0,4.861H38.2577a2.4305,2.4305,0,1,1,0-4.861ZM37.12,41.9352H29.8353a2.4307,2.4307,0,0,1,0-4.8613H37.12a2.4307,2.4307,0,1,1,0,4.8613Zm28.3091,0H44.3617a2.4307,2.4307,0,1,1,0-4.8613H65.4293a2.4307,2.4307,0,1,1,0,4.8613Z"/></svg>